{
  "accessors": [
    {
      "bufferView": 2,
      "componentType": 5126,
      "count": 864,
      "max": [
        297.6920471191406,
        192.90090942382813,
        428.0
      ],
      "min": [
        -296.0871887207031,
        -192.90090942382813,
        -428.0
      ],
      "type": "VEC3"
    },
    {
      "bufferView": 2,
      "byteOffset": 10368,
      "componentType": 5126,
      "count": 864,
      "max": [
        1.0,
        1.0,
        1.0
      ],
      "min": [
        -1.0,
        -1.0,
        -1.0
      ],
      "type": "VEC3"
    },
    {
      "bufferView": 3,
      "componentType": 5126,
      "count": 864,
      "max": [
        1.0,
        1.0,
        1.0,
        1.0
      ],
      "min": [
        -1.0,
        -1.0,
        -1.0,
        1.0
      ],
      "type": "VEC4"
    },
    {
      "bufferView": 1,
      "componentType": 5126,
      "count": 864,
      "max": [
        0.9922601580619812,
        0.9983253479003906
      ],
      "min": [
        0.0016746579203754663,
        0.0049751996994018555
      ],
      "type": "VEC2"
    },
    {
      "bufferView": 0,
      "componentType": 5125,
      "count": 2004,
      "type": "SCALAR"
    },
    {
      "bufferView": 2,
      "byteOffset": 20736,
      "componentType": 5126,
      "count": 2926,
      "max": [
        339.71453857421875,
        81.02083587646484,
        481.40899658203125
      ],
      "min": [
        -337.4289855957031,
        -336.2193603515625,
        -480.9740905761719
      ],
      "type": "VEC3"
    },
    {
      "bufferView": 2,
      "byteOffset": 55848,
      "componentType": 5126,
      "count": 2926,
      "max": [
        0.9999949932098389,
        0.9999971985816956,
        0.9991398453712463
      ],
      "min": [
        -0.9999971985816956,
        -0.41616562008857727,
        -0.9989287257194519
      ],
      "type": "VEC3"
    },
    {
      "bufferView": 3,
      "byteOffset": 13824,
      "componentType": 5126,
      "count": 2926,
      "max": [
        0.22189228236675262,
        0.9999998807907104,
        0.7579129934310913,
        1.0
      ],
      "min": [
        -0.9999982118606567,
        -0.9999985694885254,
        -0.9622814059257507,
        1.0
      ],
      "type": "VEC4"
    },
    {
      "bufferView": 1,
      "byteOffset": 6912,
      "componentType": 5126,
      "count": 2926,
      "max": [
        0.9966915845870972,
        0.9983332753181458
      ],
      "min": [
        0.0016667083837091923,
        0.02516615390777588
      ],
      "type": "VEC2"
    },
    {
      "bufferView": 0,
      "byteOffset": 8016,
      "componentType": 5125,
      "count": 16800,
      "type": "SCALAR"
    }
  ],
  "asset": {
    "extras": {
      "author": "adventurer (https://sketchfab.com/ahmagh2e)",
      "license": "CC-BY-4.0 (http://creativecommons.org/licenses/by/4.0/)",
      "source": "https://sketchfab.com/3d-models/tent-cloth-wood-35mb-2part-f35bb9de056841fabad9ed3512acdd49",
      "title": "tent   Cloth   Wood -35MB - 2PART"
    },
    "generator": "Sketchfab-16.12.0",
    "version": "2.0"
  },
  "bufferViews": [
    {
      "buffer": 0,
      "byteLength": 75216,
      "name": "floatBufferViews",
      "target": 34963
    },
    {
      "buffer": 0,
      "byteLength": 30320,
      "byteOffset": 75216,
      "byteStride": 8,
      "name": "floatBufferViews",
      "target": 34962
    },
    {
      "buffer": 0,
      "byteLength": 90960,
      "byteOffset": 105536,
      "byteStride": 12,
      "name": "floatBufferViews",
      "target": 34962
    },
    {
      "buffer": 0,
      "byteLength": 60640,
      "byteOffset": 196496,
      "byteStride": 16,
      "name": "floatBufferViews",
      "target": 34962
    }
  ],
  "buffers": [
    {
      "byteLength": 257136,
      "uri": "scene.bin"
    }
  ],
  "images": [
    {
      "uri": "textures/base_baseColor.png"
    },
    {
      "uri": "textures/base_metallicRoughness.png"
    },
    {
      "uri": "textures/base_normal.png"
    },
    {
      "uri": "textures/Cloth_baseColor.png"
    },
    {
      "uri": "textures/Cloth_metallicRoughness.png"
    },
    {
      "uri": "textures/Cloth_normal.png"
    }
  ],
  "materials": [
    {
      "doubleSided": true,
      "name": "base",
      "normalTexture": {
        "index": 2
      },
      "pbrMetallicRoughness": {
        "baseColorTexture": {
          "index": 0
        },
        "metallicFactor": 0.0,
        "metallicRoughnessTexture": {
          "index": 1
        }
      }
    },
    {
      "doubleSided": true,
      "name": "Cloth",
      "normalTexture": {
        "index": 5
      },
      "pbrMetallicRoughness": {
        "baseColorTexture": {
          "index": 3
        },
        "metallicFactor": 0.0,
        "metallicRoughnessTexture": {
          "index": 4
        }
      }
    }
  ],
  "meshes": [
    {
      "name": "base_base_0",
      "primitives": [
        {
          "attributes": {
            "NORMAL": 1,
            "POSITION": 0,
            "TANGENT": 2,
            "TEXCOORD_0": 3
          },
          "indices": 4,
          "material": 0,
          "mode": 4
        }
      ]
    },
    {
      "name": "Cloth_Cloth_0",
      "primitives": [
        {
          "attributes": {
            "NORMAL": 6,
            "POSITION": 5,
            "TANGENT": 7,
            "TEXCOORD_0": 8
          },
          "indices": 9,
          "material": 1,
          "mode": 4
        }
      ]
    }
  ],
  "nodes": [
    {
      "children": [
        1
      ],
      "matrix": [
        1.0,
        0.0,
        0.0,
        0.0,
        0.0,
        2.220446049250313e-16,
        -1.0,
        0.0,
        0.0,
        1.0,
        2.220446049250313e-16,
        0.0,
        0.0,
        0.0,
        0.0,
        1.0
      ],
      "name": "Sketchfab_model"
    },
    {
      "children": [
        2
      ],
      "matrix": [
        0.009999999776482582,
        0.0,
        0.0,
        0.0,
        0.0,
        0.0,
        0.009999999776482582,
        0.0,
        0.0,
        -0.009999999776482582,
        0.0,
        0.0,
        0.0,
        0.0,
        0.0,
        1.0
      ],
      "name": "918ebb62c38c445b962630d41adf9187.fbx"
    },
    {
      "children": [
        3,
        5
      ],
      "name": "RootNode"
    },
    {
      "children": [
        4
      ],
      "matrix": [
        1.0,
        0.0,
        0.0,
        0.0,
        0.0,
        1.0,
        0.0,
        0.0,
        0.0,
        0.0,
        1.0,
        0.0,
        0.0,
        192.90090942382813,
        0.0,
        1.0
      ],
      "name": "base"
    },
    {
      "mesh": 0,
      "name": "base_base_0"
    },
    {
      "children": [
        6
      ],
      "matrix": [
        1.0,
        0.0,
        0.0,
        0.0,
        0.0,
        1.0,
        0.0,
        0.0,
        0.0,
        0.0,
        1.0,
        0.0,
        0.0,
        310.1776428222656,
        0.0,
        1.0
      ],
      "name": "Cloth"
    },
    {
      "mesh": 1,
      "name": "Cloth_Cloth_0"
    }
  ],
  "samplers": [
    {
      "magFilter": 9729,
      "minFilter": 9987,
      "wrapS": 10497,
      "wrapT": 10497
    }
  ],
  "scene": 0,
  "scenes": [
    {
      "name": "Sketchfab_Scene",
      "nodes": [
        0
      ]
    }
  ],
  "textures": [
    {
      "sampler": 0,
      "source": 0
    },
    {
      "sampler": 0,
      "source": 1
    },
    {
      "sampler": 0,
      "source": 2
    },
    {
      "sampler": 0,
      "source": 3
    },
    {
      "sampler": 0,
      "source": 4
    },
    {
      "sampler": 0,
      "source": 5
    }
  ]
}
