{
  "accessors": [
    {
      "bufferView": 2,
      "componentType": 5126,
      "count": 848,
      "max": [
        0.4867059886455536,
        0.390051007270813,
        0.48671001195907593
      ],
      "min": [
        -0.4867059886455536,
        -2.099999983329326e-05,
        -0.4867059886455536
      ],
      "type": "VEC3"
    },
    {
      "bufferView": 2,
      "byteOffset": 10176,
      "componentType": 5126,
      "count": 848,
      "max": [
        1.0,
        1.0,
        1.0
      ],
      "min": [
        -1.0,
        -1.0,
        -1.0
      ],
      "type": "VEC3"
    },
    {
      "bufferView": 3,
      "componentType": 5126,
      "count": 848,
      "max": [
        1.0,
        1.0,
        1.0,
        1.0
      ],
      "min": [
        -1.0,
        -0.7197796106338501,
        -1.0,
        1.0
      ],
      "type": "VEC4"
    },
    {
      "bufferView": 1,
      "componentType": 5126,
      "count": 848,
      "max": [
        0.8686919808387756,
        0.7221410274505615
      ],
      "min": [
        0.0039059999398887157,
        0.0039059999398887157
      ],
      "type": "VEC2"
    },
    {
      "bufferView": 1,
      "byteOffset": 6784,
      "componentType": 5126,
      "count": 848,
      "max": [
        0.9559839963912964,
        0.9159839749336243
      ],
      "min": [
        0.004015999846160412,
        0.004015999846160412
      ],
      "type": "VEC2"
    },
    {
      "bufferView": 0,
      "componentType": 5125,
      "count": 1200,
      "type": "SCALAR"
    },
    {
      "bufferView": 2,
      "byteOffset": 20352,
      "componentType": 5126,
      "count": 1698,
      "max": [
        0.34662801027297974,
        0.22725899517536163,
        0.10636100172996521
      ],
      "min": [
        -0.34662801027297974,
        -0.5406680107116699,
        -0.9610610008239746
      ],
      "type": "VEC3"
    },
    {
      "bufferView": 2,
      "byteOffset": 40728,
      "componentType": 5126,
      "count": 1698,
      "max": [
        1.0,
        1.0,
        1.0
      ],
      "min": [
        -1.0,
        -1.0,
        -1.0
      ],
      "type": "VEC3"
    },
    {
      "bufferView": 3,
      "byteOffset": 13568,
      "componentType": 5126,
      "count": 1698,
      "max": [
        1.0,
        1.0,
        1.0,
        1.0
      ],
      "min": [
        -1.0,
        -1.0,
        -1.0,
        1.0
      ],
      "type": "VEC4"
    },
    {
      "bufferView": 1,
      "byteOffset": 13568,
      "componentType": 5126,
      "count": 1698,
      "max": [
        0.9952219724655151,
        0.9955989718437195
      ],
      "min": [
        0.0039059999398887157,
        0.0039059999398887157
      ],
      "type": "VEC2"
    },
    {
      "bufferView": 1,
      "byteOffset": 27152,
      "componentType": 5126,
      "count": 1698,
      "max": [
        0.9959840178489685,
        0.9959840178489685
      ],
      "min": [
        0.004015999846160412,
        0.004015999846160412
      ],
      "type": "VEC2"
    },
    {
      "bufferView": 0,
      "byteOffset": 4800,
      "componentType": 5125,
      "count": 2508,
      "type": "SCALAR"
    },
    {
      "bufferView": 2,
      "byteOffset": 61104,
      "componentType": 5126,
      "count": 3158,
      "max": [
        0.3055090010166168,
        0.2808769941329956,
        1.3278310298919678
      ],
      "min": [
        -0.3055090010166168,
        -0.2424290031194687,
        -0.8283870220184326
      ],
      "type": "VEC3"
    },
    {
      "bufferView": 2,
      "byteOffset": 99000,
      "componentType": 5126,
      "count": 3158,
      "max": [
        1.0,
        1.0,
        1.0
      ],
      "min": [
        -1.0,
        -1.0,
        -1.0
      ],
      "type": "VEC3"
    },
    {
      "bufferView": 3,
      "byteOffset": 40736,
      "componentType": 5126,
      "count": 3158,
      "max": [
        1.0,
        1.0,
        1.0,
        1.0
      ],
      "min": [
        -1.0,
        -1.0,
        -1.0,
        1.0
      ],
      "type": "VEC4"
    },
    {
      "bufferView": 1,
      "byteOffset": 40736,
      "componentType": 5126,
      "count": 3158,
      "max": [
        0.995311975479126,
        0.9960939884185791
      ],
      "min": [
        0.0039059999398887157,
        0.0039059999398887157
      ],
      "type": "VEC2"
    },
    {
      "bufferView": 1,
      "byteOffset": 66000,
      "componentType": 5126,
      "count": 3158,
      "max": [
        0.9959840178489685,
        0.9959840178489685
      ],
      "min": [
        0.004015999846160412,
        0.004015999846160412
      ],
      "type": "VEC2"
    },
    {
      "bufferView": 0,
      "byteOffset": 14832,
      "componentType": 5125,
      "count": 4716,
      "type": "SCALAR"
    },
    {
      "bufferView": 2,
      "byteOffset": 136896,
      "componentType": 5126,
      "count": 880,
      "max": [
        0.19639599323272705,
        0.052014000713825226,
        0.19647400081157684
      ],
      "min": [
        -0.19692100584506989,
        -1.03603994846344,
        -0.1968570053577423
      ],
      "type": "VEC3"
    },
    {
      "bufferView": 2,
      "byteOffset": 147456,
      "componentType": 5126,
      "count": 880,
      "max": [
        1.0,
        1.0,
        1.0
      ],
      "min": [
        -1.0,
        -0.9049603939056396,
        -1.0
      ],
      "type": "VEC3"
    },
    {
      "bufferView": 3,
      "byteOffset": 91264,
      "componentType": 5126,
      "count": 880,
      "max": [
        1.0,
        1.0,
        1.0,
        1.0
      ],
      "min": [
        -1.0,
        -1.0,
        -1.0,
        1.0
      ],
      "type": "VEC4"
    },
    {
      "bufferView": 1,
      "byteOffset": 91264,
      "componentType": 5126,
      "count": 880,
      "max": [
        0.9927390217781067,
        0.9952859878540039
      ],
      "min": [
        0.0039059999398887157,
        0.0039059999398887157
      ],
      "type": "VEC2"
    },
    {
      "bufferView": 1,
      "byteOffset": 98304,
      "componentType": 5126,
      "count": 880,
      "max": [
        0.8493170142173767,
        0.8493170142173767
      ],
      "min": [
        0.05734900012612343,
        0.004015999846160412
      ],
      "type": "VEC2"
    },
    {
      "bufferView": 0,
      "byteOffset": 33696,
      "componentType": 5125,
      "count": 1254,
      "type": "SCALAR"
    },
    {
      "bufferView": 2,
      "byteOffset": 158016,
      "componentType": 5126,
      "count": 1608,
      "max": [
        0.6052219867706299,
        0.08927199989557266,
        0.9520469903945923
      ],
      "min": [
        -0.5396490097045898,
        -1.2139480113983154,
        -0.6879929900169373
      ],
      "type": "VEC3"
    },
    {
      "bufferView": 2,
      "byteOffset": 177312,
      "componentType": 5126,
      "count": 1608,
      "max": [
        0.9932181239128113,
        0.9848408699035645,
        0.997310221195221
      ],
      "min": [
        -0.995871901512146,
        -1.0,
        -0.9994791150093079
      ],
      "type": "VEC3"
    },
    {
      "bufferView": 3,
      "byteOffset": 105344,
      "componentType": 5126,
      "count": 1608,
      "max": [
        1.0,
        0.997509241104126,
        0.9901496767997742,
        1.0
      ],
      "min": [
        -0.9999918341636658,
        -0.9966952800750732,
        -0.9968476295471191,
        1.0
      ],
      "type": "VEC4"
    },
    {
      "bufferView": 1,
      "byteOffset": 105344,
      "componentType": 5126,
      "count": 1608,
      "max": [
        0.7333769798278809,
        0.9112100005149841
      ],
      "min": [
        0.0039059999398887157,
        0.0039059999398887157
      ],
      "type": "VEC2"
    },
    {
      "bufferView": 1,
      "byteOffset": 118208,
      "componentType": 5126,
      "count": 1608,
      "max": [
        0.9559839963912964,
        0.9559839963912964
      ],
      "min": [
        0.004015999846160412,
        0.004015999846160412
      ],
      "type": "VEC2"
    },
    {
      "bufferView": 0,
      "byteOffset": 38712,
      "componentType": 5125,
      "count": 2400,
      "type": "SCALAR"
    }
  ],
  "asset": {
    "extras": {
      "author": "Dark Soup (https://sketchfab.com/d4rk.s0up)",
      "license": "CC-BY-4.0 (http://creativecommons.org/licenses/by/4.0/)",
      "source": "https://sketchfab.com/3d-models/whaling-harpoon-882e75cb8c5540fa9e159723447c4778",
      "title": "Whaling harpoon"
    },
    "generator": "Sketchfab-16.3.0",
    "version": "2.0"
  },
  "bufferViews": [
    {
      "buffer": 0,
      "byteLength": 48312,
      "name": "floatBufferViews",
      "target": 34963
    },
    {
      "buffer": 0,
      "byteLength": 131072,
      "byteOffset": 48312,
      "byteStride": 8,
      "name": "floatBufferViews",
      "target": 34962
    },
    {
      "buffer": 0,
      "byteLength": 196608,
      "byteOffset": 179384,
      "byteStride": 12,
      "name": "floatBufferViews",
      "target": 34962
    },
    {
      "buffer": 0,
      "byteLength": 131072,
      "byteOffset": 375992,
      "byteStride": 16,
      "name": "floatBufferViews",
      "target": 34962
    }
  ],
  "buffers": [
    {
      "byteLength": 507064,
      "uri": "scene.bin"
    }
  ],
  "images": [
    {
      "uri": "textures/Garpun1_003_baseColor.jpeg"
    },
    {
      "uri": "textures/Garpun1_003_metallicRoughness.png"
    },
    {
      "uri": "textures/Garpun1_003_normal.png"
    }
  ],
  "materials": [
    {
      "doubleSided": true,
      "name": "Garpun1_003",
      "normalTexture": {
        "index": 2
      },
      "occlusionTexture": {
        "index": 1
      },
      "pbrMetallicRoughness": {
        "baseColorTexture": {
          "index": 0
        },
        "metallicRoughnessTexture": {
          "index": 1
        }
      }
    }
  ],
  "meshes": [
    {
      "name": "defaultMaterial",
      "primitives": [
        {
          "attributes": {
            "NORMAL": 1,
            "POSITION": 0,
            "TANGENT": 2,
            "TEXCOORD_0": 3,
            "TEXCOORD_1": 4
          },
          "indices": 5,
          "material": 0,
          "mode": 4
        }
      ]
    },
    {
      "name": "defaultMaterial",
      "primitives": [
        {
          "attributes": {
            "NORMAL": 7,
            "POSITION": 6,
            "TANGENT": 8,
            "TEXCOORD_0": 9,
            "TEXCOORD_1": 10
          },
          "indices": 11,
          "material": 0,
          "mode": 4
        }
      ]
    },
    {
      "name": "defaultMaterial",
      "primitives": [
        {
          "attributes": {
            "NORMAL": 13,
            "POSITION": 12,
            "TANGENT": 14,
            "TEXCOORD_0": 15,
            "TEXCOORD_1": 16
          },
          "indices": 17,
          "material": 0,
          "mode": 4
        }
      ]
    },
    {
      "name": "defaultMaterial",
      "primitives": [
        {
          "attributes": {
            "NORMAL": 19,
            "POSITION": 18,
            "TANGENT": 20,
            "TEXCOORD_0": 21,
            "TEXCOORD_1": 22
          },
          "indices": 23,
          "material": 0,
          "mode": 4
        }
      ]
    },
    {
      "name": "defaultMaterial",
      "primitives": [
        {
          "attributes": {
            "NORMAL": 25,
            "POSITION": 24,
            "TANGENT": 26,
            "TEXCOORD_0": 27,
            "TEXCOORD_1": 28
          },
          "indices": 29,
          "material": 0,
          "mode": 4
        }
      ]
    }
  ],
  "nodes": [
    {
      "children": [
        1
      ],
      "matrix": [
        1.0,
        0.0,
        0.0,
        0.0,
        0.0,
        2.220446049250313e-16,
        -1.0,
        0.0,
        0.0,
        1.0,
        2.220446049250313e-16,
        0.0,
        0.0,
        0.0,
        0.0,
        1.0
      ],
      "name": "Sketchfab_model"
    },
    {
      "children": [
        2
      ],
      "matrix": [
        1.0,
        0.0,
        0.0,
        0.0,
        0.0,
        -4.371139006309477e-08,
        0.999999999999999,
        0.0,
        0.0,
        -0.999999999999999,
        -4.371139006309477e-08,
        0.0,
        0.0,
        0.0,
        0.0,
        1.0
      ],
      "name": "Collada visual scene group"
    },
    {
      "children": [
        3,
        4
      ],
      "matrix": [
        1.0,
        0.0,
        0.0,
        0.0,
        0.0,
        1.0,
        0.0,
        0.0,
        0.0,
        0.0,
        1.0,
        0.0,
        -0.110305,
        0.773264,
        -0.162647,
        1.0
      ],
      "name": "SM_DS_Garpun_Base"
    },
    {
      "mesh": 0,
      "name": "defaultMaterial"
    },
    {
      "children": [
        5,
        6
      ],
      "matrix": [
        1.0,
        0.0,
        0.0,
        0.0,
        0.0,
        0.0,
        1.0,
        0.0,
        0.0,
        -1.0,
        0.0,
        0.0,
        0.0,
        0.358849,
        1.6e-05,
        1.0
      ],
      "name": "SM_DS_Garpun_Down"
    },
    {
      "mesh": 1,
      "name": "defaultMaterial"
    },
    {
      "children": [
        7,
        8
      ],
      "matrix": [
        1.0,
        0.0,
        0.0,
        0.0,
        0.0,
        0.0,
        1.0,
        0.0,
        0.0,
        -1.0,
        0.0,
        0.0,
        0.0,
        3.7e-05,
        -0.858451,
        1.0
      ],
      "name": "SM_DS_Garpun_Top"
    },
    {
      "mesh": 2,
      "name": "defaultMaterial"
    },
    {
      "children": [
        9,
        10
      ],
      "matrix": [
        1.0,
        0.0,
        0.0,
        0.0,
        0.0,
        0.0,
        1.0,
        0.0,
        0.0,
        -1.0,
        0.0,
        0.0,
        0.0,
        3.4e-05,
        -0.803095,
        1.0
      ],
      "name": "SM_DS_Garpun_Arrow"
    },
    {
      "mesh": 3,
      "name": "defaultMaterial"
    },
    {
      "children": [
        11
      ],
      "matrix": [
        1.0,
        0.0,
        0.0,
        0.0,
        0.0,
        0.0,
        1.0,
        0.0,
        0.0,
        -1.0,
        0.0,
        0.0,
        0.0,
        -0.212193,
        -8e-06,
        1.0
      ],
      "name": "SM_DS_Garpun_Rope"
    },
    {
      "mesh": 4,
      "name": "defaultMaterial"
    }
  ],
  "samplers": [
    {
      "magFilter": 9729,
      "minFilter": 9987,
      "wrapS": 10497,
      "wrapT": 10497
    }
  ],
  "scene": 0,
  "scenes": [
    {
      "name": "Sketchfab_Scene",
      "nodes": [
        0
      ]
    }
  ],
  "textures": [
    {
      "sampler": 0,
      "source": 0
    },
    {
      "sampler": 0,
      "source": 1
    },
    {
      "sampler": 0,
      "source": 2
    }
  ]
}
